<svg width="12" height="14" viewBox="0 0 12 14" fill="none" xmlns="http://www.w3.org/2000/svg">
<path d="M6.27466 0.442383C5.87915 0.442383 5.60815 0.720703 5.60815 1.10889V10.0444L5.65942 11.5386L3.67456 9.34863L2.09985 7.78857C1.98267 7.67139 1.80688 7.60547 1.62378 7.60547C1.25757 7.60547 0.979248 7.88379 0.979248 8.25732C0.979248 8.43311 1.04517 8.59424 1.19165 8.74072L5.77661 13.333C5.91577 13.4795 6.09155 13.5601 6.27466 13.5601C6.45776 13.5601 6.63354 13.4795 6.77271 13.333L11.3577 8.74072C11.5042 8.59424 11.5701 8.43311 11.5701 8.25732C11.5701 7.88379 11.2917 7.60547 10.9255 7.60547C10.7424 7.60547 10.5667 7.67139 10.4495 7.78857L8.86743 9.34863L6.88989 11.5312L6.94116 10.0444V1.10889C6.94116 0.720703 6.66284 0.442383 6.27466 0.442383Z" fill="#E8E8E8"/>
</svg>
