<svg width="12" height="15" viewBox="0 0 12 15" fill="none" xmlns="http://www.w3.org/2000/svg">
<path d="M5.85228 0.942383C5.45677 0.942383 5.18577 1.2207 5.18577 1.60889V10.5444L5.23704 12.0386L3.25218 9.84863L1.67747 8.28857C1.56029 8.17139 1.3845 8.10547 1.2014 8.10547C0.835188 8.10547 0.556868 8.38379 0.556868 8.75732C0.556868 8.93311 0.622786 9.09424 0.76927 9.24072L5.35423 13.833C5.49339 13.9795 5.66917 14.0601 5.85228 14.0601C6.03538 14.0601 6.21116 13.9795 6.35032 13.833L10.9353 9.24072C11.0818 9.09424 11.1477 8.93311 11.1477 8.75732C11.1477 8.38379 10.8694 8.10547 10.5032 8.10547C10.3201 8.10547 10.1443 8.17139 10.0271 8.28857L8.44505 9.84863L6.46751 12.0312L6.51878 10.5444V1.60889C6.51878 1.2207 6.24046 0.942383 5.85228 0.942383Z" fill="#E8E8E8" fill-opacity="0.55"/>
</svg>
