<svg width="16" height="9" viewBox="0 0 16 9" fill="none" xmlns="http://www.w3.org/2000/svg">
<path d="M7.95605 8.47949C8.19336 8.47949 8.41309 8.37402 8.58008 8.19824L14.9785 1.65039C15.1367 1.49219 15.2246 1.29004 15.2246 1.06152C15.2246 0.586914 14.8643 0.226562 14.3896 0.226562C14.1699 0.226562 13.9502 0.314453 13.792 0.472656L7.95605 6.44922L2.11133 0.472656C1.95312 0.314453 1.75098 0.226562 1.51367 0.226562C1.04785 0.226562 0.678711 0.586914 0.678711 1.06152C0.678711 1.29004 0.766602 1.49219 0.924805 1.65039L7.32324 8.19824C7.50781 8.38281 7.70996 8.47949 7.95605 8.47949Z" fill="#E8E8E8"/>
</svg>
