<svg width="17" height="17" viewBox="0 0 17 17" fill="none" xmlns="http://www.w3.org/2000/svg">
<path d="M8.45361 15.9844L8.69971 15.7383C8.87549 15.5625 8.87549 15.3164 8.69971 15.1406L2.44189 8.84766H15.6606C15.8716 8.84766 16.0825 8.67188 16.0825 8.42578V8.07422C16.0825 7.86328 15.8716 7.65234 15.6606 7.65234H2.44189L8.69971 1.39453C8.87549 1.21875 8.87549 0.972656 8.69971 0.796875L8.45361 0.550781C8.27783 0.375 8.03174 0.375 7.85596 0.550781L0.437988 7.96875C0.262207 8.14453 0.262207 8.39062 0.437988 8.56641L7.85596 15.9844C8.03174 16.1602 8.27783 16.1602 8.45361 15.9844Z" fill="#E8E8E8"/>
</svg>
