<svg width="15" height="9" viewBox="0 0 15 9" fill="none" xmlns="http://www.w3.org/2000/svg">
<path d="M7.45605 0.520508C7.69336 0.520508 7.91309 0.625977 8.08008 0.801758L14.4785 7.34961C14.6367 7.50781 14.7246 7.70996 14.7246 7.93848C14.7246 8.41309 14.3643 8.77344 13.8896 8.77344C13.6699 8.77344 13.4502 8.68555 13.292 8.52734L7.45605 2.55078L1.61133 8.52734C1.45312 8.68555 1.25098 8.77344 1.01367 8.77344C0.547852 8.77344 0.178711 8.41309 0.178711 7.93848C0.178711 7.70996 0.266602 7.50781 0.424805 7.34961L6.82324 0.801758C7.00781 0.617188 7.20996 0.520508 7.45605 0.520508Z" fill="#E8E8E8"/>
</svg>
