<svg width="17" height="17" viewBox="0 0 17 17" fill="none" xmlns="http://www.w3.org/2000/svg">
<path d="M1.41666 11.042C0.864372 11.042 0.416656 11.4897 0.416656 12.042C0.416656 12.5943 0.864372 13.042 1.41666 13.042V11.042ZM3.54166 6.37533L2.54166 6.37532V6.37533H3.54166ZM13.4583 6.37533L14.4583 6.37532L13.4583 6.37533ZM9.7254 14.8753L10.5904 15.3771C10.7699 15.0677 10.7704 14.6861 10.5919 14.3762C10.4134 14.0663 10.083 13.8753 9.7254 13.8753V14.8753ZM7.27457 14.8753V13.8753C6.91694 13.8753 6.58653 14.0663 6.40803 14.3762C6.22953 14.6861 6.23012 15.0677 6.40957 15.3771L7.27457 14.8753ZM15.5833 11.042H1.41666V13.042H15.5833V11.042ZM1.41666 13.042C3.14255 13.042 4.54166 11.6429 4.54166 9.91699H2.54166C2.54166 10.5383 2.03798 11.042 1.41666 11.042V13.042ZM4.54166 9.91699V6.37533H2.54166V9.91699H4.54166ZM4.54166 6.37533C4.54166 4.1892 6.31386 2.41699 8.49999 2.41699V0.416992C5.20929 0.416992 2.54166 3.08463 2.54166 6.37532L4.54166 6.37533ZM8.49999 2.41699C10.6861 2.41699 12.4583 4.1892 12.4583 6.37533L14.4583 6.37532C14.4583 3.08463 11.7907 0.416992 8.49999 0.416992V2.41699ZM12.4583 6.37533V9.91699H14.4583V6.37533H12.4583ZM12.4583 9.91699C12.4583 11.6429 13.8574 13.042 15.5833 13.042V11.042C14.962 11.042 14.4583 10.5383 14.4583 9.91699H12.4583ZM8.8604 14.3736C8.78586 14.5021 8.64854 14.5811 8.49998 14.5811V16.5811C9.36161 16.5811 10.1581 16.1224 10.5904 15.3771L8.8604 14.3736ZM8.49998 14.5811C8.35143 14.5811 8.21411 14.5021 8.13957 14.3736L6.40957 15.3771C6.84191 16.1224 7.63836 16.5811 8.49998 16.5811V14.5811ZM7.27457 15.8753H9.7254V13.8753H7.27457V15.8753Z" fill="currentColor"/>
</svg>
