<svg width="22" height="22" viewBox="0 0 22 22" fill="none" xmlns="http://www.w3.org/2000/svg">
<path d="M19.25 0.5H2.75C1.48438 0.5 0.5 1.53125 0.5 2.75V19.25C0.5 20.5156 1.48438 21.5 2.75 21.5H19.25C20.4688 21.5 21.5 20.5156 21.5 19.25V2.75C21.5 1.53125 20.4688 0.5 19.25 0.5ZM19.25 2C19.625 2 20 2.375 20 2.75V19.25C20 19.6719 19.625 20 19.25 20H2.75C2.32812 20 2 19.6719 2 19.25V2.75C2 2.375 2.32812 2 2.75 2H19.25ZM17.6094 6.64062L17.2344 6.21875C17 6.03125 16.625 6.03125 16.4375 6.21875L8.75 13.8125L5.51562 10.5781C5.32812 10.3438 4.95312 10.3438 4.71875 10.5781L4.34375 10.9531C4.10938 11.1875 4.10938 11.5156 4.34375 11.75L8.375 15.8281C8.5625 16.0156 8.9375 16.0156 9.17188 15.8281L17.6094 7.4375C17.8438 7.20312 17.8438 6.82812 17.6094 6.64062Z" fill="#FFB359"/>
</svg>
