<svg width="18" height="18" viewBox="0 0 18 18" fill="none" xmlns="http://www.w3.org/2000/svg">
<path d="M8.98926 17.2725C13.6475 17.2725 17.5059 13.4141 17.5059 8.74707C17.5059 4.08887 13.6387 0.230469 8.98047 0.230469C4.32227 0.230469 0.463867 4.08887 0.463867 8.74707C0.463867 13.4141 4.33105 17.2725 8.98926 17.2725ZM7.84668 13.0449C7.55664 13.0449 7.31934 12.9131 7.08203 12.623L4.69141 9.67871C4.55078 9.52051 4.48047 9.31836 4.48047 9.125C4.48047 8.7207 4.79688 8.4043 5.19238 8.4043C5.42969 8.4043 5.64062 8.49219 5.84277 8.75586L7.81152 11.2871L11.6348 5.16113C11.8105 4.88867 12.0303 4.75684 12.2676 4.75684C12.6455 4.75684 13.0146 5.01172 13.0146 5.4248C13.0146 5.61816 12.9092 5.82031 12.8037 5.99609L8.57617 12.6143C8.3916 12.9043 8.14551 13.0449 7.84668 13.0449Z" fill="#E8E8E8"/>
</svg>
