<svg width="19" height="15" viewBox="0 0 19 15" fill="none" xmlns="http://www.w3.org/2000/svg">
<path d="M9.79224 0.193359C4.79224 0.193359 0.792236 4.22461 0.792236 9.19336C0.792236 10.8496 1.22974 12.4121 2.01099 13.7246C2.16724 14.0371 2.51099 14.1934 2.85474 14.1934H16.6985C17.0422 14.1934 17.386 14.0371 17.5422 13.7246C18.3235 12.4121 18.7922 10.8496 18.7922 9.19336C18.7922 4.22461 14.761 0.193359 9.79224 0.193359ZM16.4172 12.6934H3.13599C2.57349 11.6309 2.29224 10.4434 2.29224 9.19336C2.29224 5.06836 5.63599 1.69336 9.79224 1.69336C13.9172 1.69336 17.2922 5.06836 17.2922 9.19336C17.2922 10.4434 16.9797 11.6309 16.4172 12.6934ZM12.011 3.50586C11.6047 3.34961 11.1985 3.56836 11.0735 3.97461L9.63599 8.22461C8.60474 8.28711 7.79224 9.16211 7.79224 10.1934C7.79224 10.5684 7.88599 10.9121 8.04224 11.1934H11.511C11.6672 10.9121 11.7922 10.5684 11.7922 10.1934C11.7922 9.59961 11.511 9.06836 11.0735 8.69336L12.4797 4.44336C12.6047 4.06836 12.4172 3.63086 12.011 3.50586Z" fill="#E8E8E8"/>
</svg>
