<svg width="19" height="15" viewBox="0 0 19 15" fill="none" xmlns="http://www.w3.org/2000/svg">
<path d="M9.7915 0.193359C4.7915 0.193359 0.791504 4.22461 0.791504 9.19336C0.791504 10.8496 1.229 12.4121 2.01025 13.7246C2.1665 14.0371 2.51025 14.1934 2.854 14.1934H16.6978C17.0415 14.1934 17.3853 14.0371 17.5415 13.7246C18.3228 12.4121 18.7915 10.8496 18.7915 9.19336C18.7915 4.22461 14.7603 0.193359 9.7915 0.193359ZM12.979 3.94336L11.0728 9.69336C11.5103 10.0684 11.7915 10.5996 11.7915 11.1934C11.7915 11.5684 11.6665 11.9121 11.5103 12.1934H8.0415C7.88525 11.9121 7.7915 11.5684 7.7915 11.1934C7.7915 10.1621 8.604 9.28711 9.63525 9.22461L11.5728 3.47461C11.6978 3.06836 12.104 2.84961 12.5103 3.00586C12.9165 3.13086 13.104 3.56836 12.979 3.94336Z" fill="#FF8B8B"/>
</svg>
