<svg width="16" height="12" viewBox="0 0 16 12" fill="none" xmlns="http://www.w3.org/2000/svg">
<path d="M4.7041 6C6.13379 6 7.3291 4.82812 7.3291 3.375C7.3291 1.94531 6.13379 0.75 4.7041 0.75C3.25098 0.75 2.0791 1.94531 2.0791 3.375C2.0791 4.82812 3.25098 6 4.7041 6ZM6.48535 6.75H6.29785C5.80566 6.98438 5.2666 7.125 4.7041 7.125C4.11816 7.125 3.5791 6.98438 3.08691 6.75H2.89941C1.39941 6.75 0.204102 7.96875 0.204102 9.46875V10.125C0.204102 10.7578 0.696289 11.25 1.3291 11.25H8.0791C8.68848 11.25 9.2041 10.7578 9.2041 10.125V9.46875C9.2041 7.96875 7.98535 6.75 6.48535 6.75ZM11.4541 6C12.6963 6 13.7041 4.99219 13.7041 3.75C13.7041 2.50781 12.6963 1.5 11.4541 1.5C10.2119 1.5 9.2041 2.50781 9.2041 3.75C9.2041 4.99219 10.2119 6 11.4541 6ZM12.5791 6.75H12.4854C12.1572 6.86719 11.8057 6.9375 11.4541 6.9375C11.0791 6.9375 10.7275 6.86719 10.3994 6.75H10.3291C9.83691 6.75 9.3916 6.89062 9.0166 7.125C9.5791 7.73438 9.9541 8.55469 9.9541 9.46875V10.3594C9.9541 10.4062 9.93066 10.4531 9.93066 10.5H14.0791C14.6885 10.5 15.2041 10.0078 15.2041 9.375C15.2041 7.94531 14.0088 6.75 12.5791 6.75Z" fill="#E8E8E8" fill-opacity="0.55"/>
</svg>
