<svg width="28" height="28" viewBox="0 0 28 28" fill="none" xmlns="http://www.w3.org/2000/svg">
<path d="M13.7942 27.7646C21.3235 27.7646 27.5198 21.5684 27.5198 14.0391C27.5198 6.50977 21.3235 0.313477 13.7942 0.313477C6.26492 0.313477 0.068634 6.50977 0.068634 14.0391C0.068634 21.5684 6.26492 27.7646 13.7942 27.7646ZM13.7942 26.2998C7.01199 26.2998 1.54813 20.8213 1.54813 14.0391C1.54813 7.25684 7.01199 1.77832 13.7942 1.77832C20.5764 1.77832 26.055 7.25684 26.055 14.0391C26.055 20.8213 20.5764 26.2998 13.7942 26.2998ZM13.7356 8.64844C14.4973 8.64844 15.0979 8.0625 15.0979 7.31543C15.0979 6.55371 14.4973 5.93848 13.7356 5.93848C12.9886 5.93848 12.388 6.55371 12.388 7.31543C12.388 8.0625 12.9886 8.64844 13.7356 8.64844ZM11.2893 21.5391H16.9729C17.3538 21.5391 17.6321 21.2607 17.6321 20.8945C17.6321 20.5283 17.3538 20.2354 16.9729 20.2354H14.8343V12.0762C14.8343 11.6221 14.5852 11.2998 14.1311 11.2998H11.4358C11.055 11.2998 10.7766 11.5928 10.7766 11.9443C10.7766 12.3252 11.055 12.6035 11.4358 12.6035H13.428V20.2354H11.2893C10.9085 20.2354 10.6302 20.5283 10.6302 20.8945C10.6302 21.2607 10.9085 21.5391 11.2893 21.5391Z" fill="currentColor"/>
</svg>
