<svg width="14" height="15" viewBox="0 0 14 15" fill="none" xmlns="http://www.w3.org/2000/svg">
<path d="M12.5 0.5H1.5C0.65625 0.5 0 1.1875 0 2V13C0 13.8438 0.65625 14.5 1.5 14.5H12.5C13.3125 14.5 14 13.8438 14 13V2C14 1.1875 13.3125 0.5 12.5 0.5ZM13 13C13 13.2812 12.75 13.5 12.5 13.5H1.5C1.21875 13.5 1 13.2812 1 13V2C1 1.75 1.21875 1.5 1.5 1.5H12.5C12.75 1.5 13 1.75 13 2V13ZM3.09375 11.2188L3.28125 11.4062C3.40625 11.5625 3.65625 11.5625 3.8125 11.4062L9.90625 5.3125L9.9375 5.34375L9.90625 8.125C9.90625 8.34375 10.0938 8.5 10.2812 8.5H10.5938C10.8125 8.5 10.9688 8.34375 10.9688 8.125L11 3.875C11 3.6875 10.8125 3.5 10.625 3.5L6.375 3.53125C6.15625 3.53125 6 3.6875 6 3.90625V4.21875C6 4.40625 6.15625 4.59375 6.375 4.59375L9.15625 4.5625L9.1875 4.59375L3.09375 10.6875C2.9375 10.8438 2.9375 11.0938 3.09375 11.2188Z" fill="#E8E8E8" fill-opacity="0.8"/>
</svg>
