<svg width="12" height="12" viewBox="0 0 12 12" fill="none" xmlns="http://www.w3.org/2000/svg">
<path d="M10.0967 5.75H9.53418V4.0625C9.53418 2.11719 7.91699 0.5 5.97168 0.5C4.00293 0.5 2.40918 2.11719 2.40918 4.0625V5.75H1.84668C1.21387 5.75 0.72168 6.26562 0.72168 6.875V11.375C0.72168 12.0078 1.21387 12.5 1.84668 12.5H10.0967C10.7061 12.5 11.2217 12.0078 11.2217 11.375V6.875C11.2217 6.26562 10.7061 5.75 10.0967 5.75ZM7.65918 5.75H4.28418V4.0625C4.28418 3.14844 5.03418 2.375 5.97168 2.375C6.88574 2.375 7.65918 3.14844 7.65918 4.0625V5.75Z" fill="#E8E8E8" fill-opacity="0.35"/>
</svg>
