<svg width="17" height="17" viewBox="0 0 17 17" fill="none" xmlns="http://www.w3.org/2000/svg">
<path d="M16.626 8.42712C16.626 3.9115 12.9072 0.192749 8.3916 0.192749C3.84277 0.192749 0.157227 3.9115 0.157227 8.42712C0.157227 12.976 3.84277 16.6615 8.3916 16.6615C12.9072 16.6615 16.626 12.976 16.626 8.42712ZM7.42871 12.8099C7.22949 13.0092 6.86426 13.0092 6.66504 12.8099L3.21191 9.35681C3.0127 9.15759 3.0127 8.79236 3.21191 8.59314L3.97559 7.86267C4.1748 7.63025 4.50684 7.63025 4.70605 7.86267L7.06348 10.1869L12.0439 5.20642C12.2432 4.974 12.5752 4.974 12.7744 5.20642L13.5381 5.93689C13.7373 6.13611 13.7373 6.50134 13.5381 6.70056L7.42871 12.8099Z" fill="#FF8B8B"/>
</svg>
