<svg width="17" height="17" viewBox="0 0 17 17" fill="none" xmlns="http://www.w3.org/2000/svg">
<path d="M8.70032 0.192749C4.15149 0.192749 0.465942 3.9115 0.465942 8.42712C0.465942 12.976 4.15149 16.6615 8.70032 16.6615C13.2159 16.6615 16.9347 12.976 16.9347 8.42712C16.9347 3.9115 13.2159 0.192749 8.70032 0.192749ZM8.70032 15.599C4.74915 15.599 1.52844 12.4115 1.52844 8.42712C1.52844 4.50916 4.71594 1.25525 8.70032 1.25525C12.6183 1.25525 15.8722 4.47595 15.8722 8.42712C15.8722 12.3783 12.6515 15.599 8.70032 15.599ZM13.382 6.50134C13.548 6.33533 13.548 6.0697 13.382 5.93689L13.1163 5.63806C12.9503 5.47205 12.6847 5.47205 12.5519 5.63806L7.10657 11.017L4.81555 8.72595C4.68274 8.55994 4.41711 8.55994 4.2511 8.72595L3.98547 8.99158C3.81946 9.15759 3.81946 9.39001 3.98547 9.55603L6.84094 12.4447C6.97375 12.5775 7.23938 12.5775 7.4054 12.4447L13.382 6.50134Z" fill="#E8E8E8"/>
</svg>
