<svg width="14" height="17" viewBox="0 0 14 17" fill="none" xmlns="http://www.w3.org/2000/svg">
<path d="M12.5 7.19336H11.75V4.94336C11.75 2.34961 9.59375 0.193359 7 0.193359C4.375 0.193359 2.25 2.34961 2.25 4.94336V7.19336H1.5C0.65625 7.19336 0 7.88086 0 8.69336V14.6934C0 15.5371 0.65625 16.1934 1.5 16.1934H12.5C13.3125 16.1934 14 15.5371 14 14.6934V8.69336C14 7.88086 13.3125 7.19336 12.5 7.19336ZM9.25 7.19336H4.75V4.94336C4.75 3.72461 5.75 2.69336 7 2.69336C8.21875 2.69336 9.25 3.72461 9.25 4.94336V7.19336Z" fill="#E8E8E8"/>
</svg>
