<svg width="14" height="12" viewBox="0 0 14 12" fill="none" xmlns="http://www.w3.org/2000/svg">
<path fill-rule="evenodd" clip-rule="evenodd" d="M0.5 0.5C0.223858 0.5 0 0.723858 0 1C0 1.27614 0.223858 1.5 0.5 1.5H13.5C13.7761 1.5 14 1.27614 14 1C14 0.723858 13.7761 0.5 13.5 0.5H0.5ZM0 6C0 5.72386 0.223858 5.5 0.5 5.5H13.5C13.7761 5.5 14 5.72386 14 6C14 6.27614 13.7761 6.5 13.5 6.5H0.5C0.223858 6.5 0 6.27614 0 6ZM0 11C0 10.7239 0.223858 10.5 0.5 10.5H13.5C13.7761 10.5 14 10.7239 14 11C14 11.2761 13.7761 11.5 13.5 11.5H0.5C0.223858 11.5 0 11.2761 0 11Z" fill="#E8E8E8"/>
</svg>
