<svg width="15" height="13" viewBox="0 0 15 13" fill="none" xmlns="http://www.w3.org/2000/svg">
<path d="M10.6987 0.5C8.72998 0.523438 7.15967 2.14062 7.15967 4.10938V5.75H1.90967C1.27686 5.75 0.784668 6.26562 0.784668 6.875V11.375C0.784668 12.0078 1.27686 12.5 1.90967 12.5H10.1597C10.769 12.5 11.2847 12.0078 11.2847 11.375V6.875C11.2847 6.26562 10.769 5.75 10.1597 5.75H9.03467V4.08594C9.03467 3.17188 9.76123 2.39844 10.6987 2.375C11.6362 2.375 12.4097 3.14844 12.4097 4.0625V5.9375C12.4097 6.26562 12.644 6.5 12.9722 6.5H13.7222C14.0269 6.5 14.2847 6.26562 14.2847 5.9375V4.0625C14.2847 2.09375 12.6675 0.5 10.6987 0.5Z" fill="#72F4A1"/>
</svg>
