<svg width="19" height="17" viewBox="0 0 19 17" fill="none" xmlns="http://www.w3.org/2000/svg">
<path d="M13.91 0.193359C11.285 0.224609 9.19128 2.38086 9.19128 5.00586V7.19336H2.19128C1.34753 7.19336 0.691284 7.88086 0.691284 8.69336V14.6934C0.691284 15.5371 1.34753 16.1934 2.19128 16.1934H13.1913C14.0038 16.1934 14.6913 15.5371 14.6913 14.6934V8.69336C14.6913 7.88086 14.0038 7.19336 13.1913 7.19336H11.6913V4.97461C11.6913 3.75586 12.66 2.72461 13.91 2.69336C15.16 2.69336 16.1913 3.72461 16.1913 4.94336V7.44336C16.1913 7.88086 16.5038 8.19336 16.9413 8.19336H17.9413C18.3475 8.19336 18.6913 7.88086 18.6913 7.44336V4.94336C18.6913 2.31836 16.535 0.193359 13.91 0.193359Z" fill="#E8E8E8"/>
</svg>
