<svg width="21" height="15" viewBox="0 0 21 15" fill="none" xmlns="http://www.w3.org/2000/svg">
<path d="M13.7671 4.14587C13.7046 4.08337 13.6421 4.08337 13.5796 4.08337C13.5171 4.08337 13.4546 4.11462 13.3921 4.14587L10.0483 7.52087L8.54834 5.98962C8.48584 5.92712 8.42334 5.92712 8.36084 5.92712C8.29834 5.92712 8.23584 5.92712 8.17334 5.98962L7.82959 6.33337C7.73584 6.42712 7.73584 6.58337 7.82959 6.70837L9.86084 8.73962C9.92334 8.80212 9.98584 8.80212 10.0483 8.80212C10.1108 8.80212 10.1733 8.80212 10.2358 8.73962L14.1108 4.86462C14.2046 4.73962 14.2046 4.58337 14.1108 4.48962L13.7671 4.14587ZM19.9858 8.80212H17.9858L17.9858 1.77087C17.9858 1.23962 17.5171 0.802124 16.9858 0.802124L4.98584 0.802124C4.42334 0.802124 3.98584 1.23962 3.98584 1.77087L3.98584 8.80212H1.98584C1.42334 8.80212 0.98584 9.27087 0.98584 9.80212L0.98584 13.8021C0.98584 14.3646 1.42334 14.8021 1.98584 14.8021L19.9858 14.8021C20.5171 14.8021 20.9858 14.3646 20.9858 13.8021V9.80212C20.9858 9.27087 20.5171 8.80212 19.9858 8.80212ZM4.98584 1.80212L16.9858 1.80212V11.3021L4.98584 11.3021L4.98584 1.80212ZM19.9858 13.8021L1.98584 13.8021L1.98584 9.80212H3.98584L3.98584 11.3021H3.26709C3.11084 11.3021 2.98584 11.4271 2.98584 11.5521V12.0521C2.98584 12.2084 3.11084 12.3021 3.26709 12.3021L18.6733 12.3021C18.8296 12.3021 18.9858 12.2084 18.9858 12.0521V11.5521C18.9858 11.4271 18.8296 11.3021 18.6733 11.3021H17.9858V9.80212H19.9858V13.8021Z" fill="#E8E8E8"/>
</svg>
