<svg width="21" height="15" viewBox="0 0 21 15" fill="none" xmlns="http://www.w3.org/2000/svg">
<path d="M19.6074 9.80212H17.6074V11.8021H18.2949C18.4512 11.8021 18.6074 11.9271 18.6074 12.0521V12.5521C18.6074 12.7084 18.4512 12.8021 18.2949 12.8021L2.88867 12.8021C2.73242 12.8021 2.60742 12.7084 2.60742 12.5521V12.0521C2.60742 11.9271 2.73242 11.8021 2.88867 11.8021H3.60742L3.60742 9.80212H1.60742C1.04492 9.80212 0.607422 10.2709 0.607422 10.8021L0.607422 13.8021C0.607422 14.3646 1.04492 14.8021 1.60742 14.8021L19.6074 14.8021C20.1387 14.8021 20.6074 14.3646 20.6074 13.8021V10.8021C20.6074 10.2709 20.1387 9.80212 19.6074 9.80212ZM16.6074 11.8021L16.6074 1.83337C16.6074 1.27087 16.1387 0.802124 15.5762 0.802124L5.60742 0.802124C5.04492 0.802124 4.60742 1.27087 4.60742 1.83337L4.60742 11.8021L16.6074 11.8021ZM7.20117 6.11462L7.98242 5.33337C8.10742 5.20837 8.32617 5.20837 8.45117 5.33337L9.76367 6.64587L12.7324 3.67712C12.8574 3.55212 13.0762 3.55212 13.2012 3.70837L13.9824 4.48962C14.1387 4.61462 14.1387 4.83337 13.9824 4.95837L9.98242 8.92712C9.85742 9.08337 9.63867 9.08337 9.51367 8.92712L7.20117 6.61462C7.04492 6.45837 7.07617 6.27087 7.20117 6.11462Z" fill="#FF8B8B"/>
</svg>
