<svg width="26" height="27" viewBox="0 0 26 27" fill="none" xmlns="http://www.w3.org/2000/svg">
<rect x="0.5" y="0.75" width="25" height="25" rx="12.5" fill="#E8E8E8" stroke="#232323"/>
<mask id="path-2-inside-1" fill="white">
<path fill-rule="evenodd" clip-rule="evenodd" d="M7.15857 6.50159V20.0138H11.7623C13.8804 20.0138 15.5951 19.7467 16.9063 19.2126C18.2319 18.6785 19.2117 17.9133 19.8457 16.9172C20.4797 15.9212 20.8111 14.723 20.8399 13.3227C20.8399 12.2833 20.6454 11.3593 20.2564 10.5509C19.8673 9.72806 19.3414 9.01347 18.6786 8.40716C18.2319 8.00294 17.7276 7.66369 17.1656 7.38941C16.6037 7.10069 15.9193 6.88414 15.1124 6.73978C14.3054 6.58099 13.3184 6.50159 12.1513 6.50159H7.15857ZM11.6758 17.935H9.7522V8.60204H12.0216C14.2118 8.60204 15.7968 9.03513 16.7766 9.90129C17.7708 10.753 18.2679 11.9151 18.2679 13.3876C18.2823 14.8024 17.7636 15.9139 16.7118 16.7224C15.6743 17.5308 13.9957 17.935 11.6758 17.935ZM13.6301 11.7897C12.8194 11.7897 12.1622 12.4469 12.1622 13.2577C12.1622 14.0684 12.8194 14.7256 13.6301 14.7256C14.4409 14.7256 15.0981 14.0684 15.0981 13.2577C15.0981 12.4469 14.4409 11.7897 13.6301 11.7897Z"/>
</mask>
<path fill-rule="evenodd" clip-rule="evenodd" d="M7.15857 6.50159V20.0138H11.7623C13.8804 20.0138 15.5951 19.7467 16.9063 19.2126C18.2319 18.6785 19.2117 17.9133 19.8457 16.9172C20.4797 15.9212 20.8111 14.723 20.8399 13.3227C20.8399 12.2833 20.6454 11.3593 20.2564 10.5509C19.8673 9.72806 19.3414 9.01347 18.6786 8.40716C18.2319 8.00294 17.7276 7.66369 17.1656 7.38941C16.6037 7.10069 15.9193 6.88414 15.1124 6.73978C14.3054 6.58099 13.3184 6.50159 12.1513 6.50159H7.15857ZM11.6758 17.935H9.7522V8.60204H12.0216C14.2118 8.60204 15.7968 9.03513 16.7766 9.90129C17.7708 10.753 18.2679 11.9151 18.2679 13.3876C18.2823 14.8024 17.7636 15.9139 16.7118 16.7224C15.6743 17.5308 13.9957 17.935 11.6758 17.935ZM13.6301 11.7897C12.8194 11.7897 12.1622 12.4469 12.1622 13.2577C12.1622 14.0684 12.8194 14.7256 13.6301 14.7256C14.4409 14.7256 15.0981 14.0684 15.0981 13.2577C15.0981 12.4469 14.4409 11.7897 13.6301 11.7897Z" fill="black"/>
<path d="M7.15857 20.0138H6.15857V21.0138H7.15857V20.0138ZM7.15857 6.50159V5.50159H6.15857V6.50159H7.15857ZM16.9063 19.2126L16.5325 18.285L16.529 18.2865L16.9063 19.2126ZM19.8457 16.9172L19.0021 16.3803L19.0021 16.3803L19.8457 16.9172ZM20.8399 13.3227L21.8397 13.3432L21.8399 13.3329V13.3227H20.8399ZM20.2564 10.5509L19.3523 10.9784L19.3553 10.9846L20.2564 10.5509ZM18.6786 8.40716L19.3536 7.66929L19.3496 7.66568L18.6786 8.40716ZM17.1656 7.38941L16.7086 8.27888L16.7178 8.28357L16.727 8.28807L17.1656 7.38941ZM15.1124 6.73978L14.9193 7.72096L14.9277 7.72263L14.9362 7.72415L15.1124 6.73978ZM9.7522 17.935H8.7522V18.935H9.7522V17.935ZM9.7522 8.60204V7.60204H8.7522V8.60204H9.7522ZM16.7766 9.90129L16.1143 10.6505L16.1201 10.6557L16.126 10.6607L16.7766 9.90129ZM18.2679 13.3876H17.2679L17.268 13.3978L18.2679 13.3876ZM16.7118 16.7224L16.1024 15.9295L16.0971 15.9336L16.7118 16.7224ZM8.15857 20.0138V6.50159H6.15857V20.0138H8.15857ZM11.7623 19.0138H7.15857V21.0138H11.7623V19.0138ZM16.529 18.2865C15.3817 18.7539 13.8091 19.0138 11.7623 19.0138V21.0138C13.9516 21.0138 15.8084 20.7396 17.2835 20.1387L16.529 18.2865ZM19.0021 16.3803C18.502 17.166 17.7062 17.8122 16.5325 18.2851L17.28 20.1401C18.7576 19.5447 19.9214 18.6607 20.6893 17.4542L19.0021 16.3803ZM19.8402 13.3021C19.8144 14.5536 19.5207 15.5655 19.0021 16.3803L20.6893 17.4542C21.4387 16.2769 21.8079 14.8923 21.8397 13.3432L19.8402 13.3021ZM19.3553 10.9846C19.6697 11.6378 19.8399 12.4096 19.8399 13.3227H21.8399C21.8399 12.1569 21.6212 11.0809 21.1575 10.1173L19.3553 10.9846ZM18.0036 9.14501C18.5694 9.66252 19.018 10.2713 19.3523 10.9783L21.1604 10.1235C20.7166 9.18486 20.1134 8.36442 19.3536 7.6693L18.0036 9.14501ZM16.727 8.28807C17.2077 8.52272 17.6332 8.80984 18.0076 9.14863L19.3496 7.66568C18.8306 7.19605 18.2474 6.80467 17.6043 6.49074L16.727 8.28807ZM14.9362 7.72415C15.6727 7.85592 16.2568 8.04675 16.7086 8.27888L17.6226 6.49994C16.9505 6.15462 16.1658 5.91237 15.2885 5.75541L14.9362 7.72415ZM12.1513 7.50159C13.2782 7.50159 14.1962 7.57867 14.9193 7.72096L15.3054 5.7586C14.4147 5.5833 13.3587 5.50159 12.1513 5.50159V7.50159ZM7.15857 7.50159H12.1513V5.50159H7.15857V7.50159ZM9.7522 18.935H11.6758V16.935H9.7522V18.935ZM8.7522 8.60204V17.935H10.7522V8.60204H8.7522ZM12.0216 7.60204H9.7522V9.60204H12.0216V7.60204ZM17.4389 9.15207C16.1875 8.04583 14.3031 7.60204 12.0216 7.60204V9.60204C14.1204 9.60204 15.406 10.0244 16.1143 10.6505L17.4389 9.15207ZM19.2679 13.3876C19.2679 11.6639 18.6724 10.2086 17.4272 9.14186L16.126 10.6607C16.8693 11.2974 17.2679 12.1664 17.2679 13.3876H19.2679ZM17.3211 17.5152C18.6408 16.501 19.2852 15.0821 19.2679 13.3774L17.268 13.3978C17.2794 14.5227 16.8865 15.3269 16.1024 15.9295L17.3211 17.5152ZM11.6758 18.935C14.0667 18.935 16.0227 18.5271 17.3264 17.5112L16.0971 15.9336C15.3259 16.5345 13.9246 16.935 11.6758 16.935V18.935ZM13.1622 13.2577C13.1622 12.9992 13.3717 12.7897 13.6301 12.7897V10.7897C12.2671 10.7897 11.1622 11.8946 11.1622 13.2577H13.1622ZM13.6301 13.7256C13.3717 13.7256 13.1622 13.5161 13.1622 13.2577H11.1622C11.1622 14.6207 12.2671 15.7256 13.6301 15.7256V13.7256ZM14.0981 13.2577C14.0981 13.5161 13.8886 13.7256 13.6301 13.7256V15.7256C14.9931 15.7256 16.0981 14.6207 16.0981 13.2577H14.0981ZM13.6301 12.7897C13.8886 12.7897 14.0981 12.9992 14.0981 13.2577H16.0981C16.0981 11.8946 14.9931 10.7897 13.6301 10.7897V12.7897Z" fill="#232323" mask="url(#path-2-inside-1)"/>
</svg>
