<svg width="129" height="25" viewBox="0 0 129 25" fill="none" xmlns="http://www.w3.org/2000/svg">
<path fill-rule="evenodd" clip-rule="evenodd" d="M102.72 7.99349V23.8929H106.686V7.99349H102.72ZM102.78 4.74522C103.264 5.22391 103.846 5.46326 104.527 5.46326C105.187 5.46326 105.758 5.22391 106.242 4.74522C106.725 4.26653 106.967 3.68526 106.967 3.00141C106.967 2.34036 106.725 1.75909 106.242 1.2576C105.758 0.756114 105.187 0.505371 104.527 0.505371C103.824 0.505371 103.242 0.744717 102.78 1.22341C102.319 1.7021 102.088 2.29477 102.088 3.00141C102.088 3.68526 102.319 4.26653 102.78 4.74522ZM57.2572 11.1047H61.7956V23.8927H65.8175V11.1047H72.5547V7.99323H65.8175V7.00165C65.8175 5.97588 66.2571 5.21225 67.1362 4.71076C68.0373 4.18648 69.3339 3.92434 71.0262 3.92434C71.9053 3.92434 72.6636 3.99273 73.3009 4.1295C73.9383 4.26626 74.5427 4.50561 75.1141 4.84753C75.4218 5.05269 75.6196 5.23505 75.7075 5.39461C75.7954 5.53138 75.8393 5.71374 75.8393 5.94169L76.0701 6.11265L76.3338 5.70234L78.147 3.00115C77.2899 2.29451 76.224 1.75883 74.9492 1.39411C73.6745 1.0066 72.3119 0.812841 70.8614 0.812841C68.1142 0.812841 65.9164 1.34852 64.2681 2.41988C62.6197 3.49124 61.7956 5.0185 61.7956 7.00165V7.99323H57.2462V7.99373H55.5425L50.2678 13.2594L44.7294 7.99373H39.7845L47.7624 15.8922L39.6196 23.8932H44.7294L50.2678 18.2856L56.1359 23.8932H61.2127L52.7733 15.7554L57.2572 11.1047ZM75.8825 23.209C77.5089 23.8928 79.388 24.2234 81.5198 24.2006C83.6516 24.2006 85.5088 23.8587 87.0912 23.1748C88.6955 22.4682 89.9373 21.4994 90.8164 20.2685C91.6955 19.0147 92.135 17.5787 92.135 15.9602C92.135 14.3646 91.6955 12.9399 90.8164 11.6862C89.9373 10.4325 88.6955 9.44089 87.0912 8.71145C85.5088 7.98202 83.6516 7.6173 81.5198 7.6173C79.388 7.6173 77.5089 7.98202 75.8825 8.71145C74.2782 9.44089 73.0254 10.4325 72.1244 11.6862C71.2452 12.9399 70.8057 14.3646 70.8057 15.9602C70.8057 17.5787 71.2452 19.0147 72.1244 20.2685C73.0254 21.5222 74.2782 22.5024 75.8825 23.209ZM86.2011 19.5504C85.0143 20.4394 83.4538 20.8839 81.5198 20.8839C80.2451 20.8839 79.1133 20.6902 78.1243 20.3026C77.1353 19.8923 76.3551 19.3225 75.7836 18.593C75.2122 17.8408 74.9265 16.9518 74.9265 15.926C74.9265 14.8775 75.2122 13.9885 75.7836 13.259C76.3551 12.5068 77.1353 11.9369 78.1243 11.5494C79.1133 11.1391 80.2451 10.934 81.5198 10.934C83.4538 10.934 85.0143 11.3785 86.2011 12.2675C87.3879 13.1337 87.9813 14.3532 87.9813 15.926C87.9813 17.4533 87.3879 18.6614 86.2011 19.5504ZM118.117 24.2006C115.985 24.2234 114.106 23.8928 112.48 23.209C110.875 22.5024 109.623 21.5222 108.722 20.2685C107.842 19.0147 107.403 17.5787 107.403 15.9602C107.403 14.3646 107.842 12.9399 108.722 11.6862C109.623 10.4325 110.875 9.44089 112.48 8.71145C114.106 7.98202 115.985 7.6173 118.117 7.6173C120.249 7.6173 122.106 7.98202 123.688 8.71145C125.293 9.44089 126.534 10.4325 127.414 11.6862C128.293 12.9399 128.732 14.3646 128.732 15.9602C128.732 17.5787 128.293 19.0147 127.414 20.2685C126.534 21.4994 125.293 22.4682 123.688 23.1748C122.106 23.8587 120.249 24.2006 118.117 24.2006ZM118.117 20.8839C120.051 20.8839 121.611 20.4394 122.798 19.5504C123.985 18.6614 124.578 17.4533 124.578 15.926C124.578 14.3532 123.985 13.1337 122.798 12.2675C121.611 11.3785 120.051 10.934 118.117 10.934C116.842 10.934 115.71 11.1391 114.721 11.5494C113.732 11.9369 112.952 12.5068 112.381 13.259C111.809 13.9885 111.524 14.8775 111.524 15.926C111.524 16.9518 111.809 17.8408 112.381 18.593C112.952 19.3225 113.732 19.8923 114.721 20.3026C115.71 20.6902 116.842 20.8839 118.117 20.8839ZM0 2.5911V23.9271H7.02187C10.2526 23.9271 12.8679 23.5054 14.8679 22.662C16.8899 21.8186 18.3843 20.6105 19.3514 19.0376C20.3184 17.4648 20.8239 15.5728 20.8678 13.3617C20.8678 11.7205 20.5711 10.2616 19.9777 8.98506C19.3843 7.68576 18.5821 6.55741 17.5712 5.60003C16.8899 4.96177 16.1206 4.42609 15.2635 3.99299C14.4064 3.53709 13.3624 3.19516 12.1317 2.96722C10.9009 2.71647 9.39546 2.5911 7.61527 2.5911H0ZM6.89001 20.6446H3.95598V5.90776H7.41747C10.7581 5.90776 13.1756 6.5916 14.6701 7.9593C16.1866 9.30419 16.9448 11.1392 16.9448 13.4643C16.9668 15.6982 16.1756 17.4534 14.5712 18.7299C12.9888 20.0064 10.4284 20.6446 6.89001 20.6446ZM32.64 24.269C30.4202 24.269 28.4423 23.9498 26.706 23.3116C24.9698 22.6733 23.5962 21.7501 22.5852 20.542C21.5742 19.3111 21.0687 17.8294 21.0687 16.097C21.0687 14.319 21.5413 12.8031 22.4863 11.5494C23.4533 10.2729 24.761 9.30412 26.4093 8.64307C28.0576 7.95922 29.9257 7.6173 32.0136 7.6173C33.9257 7.6173 35.618 7.93643 37.0905 8.57468C38.563 9.21294 39.7168 10.1361 40.552 11.3443C41.3871 12.5296 41.8047 13.9771 41.8047 15.6867C41.8047 15.8918 41.7937 16.1312 41.7717 16.4047C41.7717 16.6555 41.7497 16.8834 41.7058 17.0886H24.8599C24.9918 18.0232 25.4203 18.7868 26.1456 19.3795C26.8928 19.9493 27.8379 20.371 28.9807 20.6446C30.1455 20.9181 31.4092 21.0549 32.7719 21.0549C33.8927 21.0549 35.0136 20.9523 36.1344 20.7472C37.2773 20.542 38.1784 20.1887 38.8377 19.6872L41.1124 21.7387C40.1454 22.5821 38.9146 23.2204 37.4201 23.6535C35.9257 24.0638 34.3323 24.269 32.64 24.269ZM24.9258 14.0796H37.9806C37.9146 13.3502 37.596 12.7347 37.0245 12.2333C36.4531 11.7318 35.7059 11.3557 34.7828 11.1049C33.8598 10.8542 32.8488 10.7288 31.7499 10.7288C30.0137 10.7288 28.5192 10.9909 27.2664 11.5152C26.0137 12.0395 25.2335 12.8943 24.9258 14.0796ZM101.821 20.6108H98.5438V1.05283H91.2412V4.33529H94.5219V20.6108H91.2412V23.8933H101.821V20.6108Z" fill="#E8E8E8"/>
</svg>
